<svg xmlns="http://www.w3.org/2000/svg" xmlns:svg="http://www.w3.org/2000/svg" id="svg5" width="1280" height="640" version="1.1" viewBox="0 0 1280 640" xml:space="preserve"><defs id="defs2"><rect id="rect23634" width="488.209" height="194.727" x="136.309" y="-221.155"/><rect id="rect16308" width="1203.137" height="164.127" x="-45.9" y="-368.591"/><rect id="rect16252" width="390.846" height="190.555" x="258.709" y="112.664"/><path id="B" d="m 65.605,29.258 c -0.877,0.404 -1.722,0.875 -2.526,1.41 v 6.215 h -2.444 v -9.645 h 2.04 l 0.158,1.067 a 10.8,10.8 0 0 1 2.526,-1.263 z"/><path id="path-1" d="m 180.82764,252.60527 c 4.01631,1.56489 8.59642,1.46428 12.65058,-0.4861 l 52.50092,-25.26232 c 5.51645,-2.65463 9.02475,-8.23882 9.02475,-14.36389 V 41.197184 c 0,-6.125273 -3.5083,-11.708563 -9.02475,-14.363193 L 193.47822,1.5706855 c -5.32021,-2.55994221 -11.54689,-1.93291554 -16.21565,1.4616604 -0.6674,0.4849258 -1.30292,1.0263508 -1.89859,1.6230201 L 74.856589,96.349844 31.0778,63.118156 C 27.00242,60.02464 21.302087,60.27805 17.517072,63.7211 L 3.4757806,76.493707 c -4.6298048,4.211549 -4.6351141,11.495197 -0.011465,15.71352 L 41.430759,126.84453 3.4643154,161.48222 c -4.6236489,4.21852 -4.6183396,11.50207 0.011465,15.71362 l 14.0412916,12.77211 c 3.785015,3.44355 9.485348,3.69656 13.560728,0.60364 L 74.856589,157.3394 175.36398,249.03422 c 1.58979,1.59079 3.4565,2.78911 5.46366,3.57105 z m 10.46412,-183.649318 -76.2621,57.888578 76.2621,57.88887 z"/><linearGradient id="linearGradient-3" x1="127.173" x2="127.173" y1="0" y2="254.346" gradientTransform="scale(1.002588,0.99741863)" gradientUnits="userSpaceOnUse"><stop id="stop18241" offset="0%" stop-color="#FFF"/><stop id="stop18243" offset="100%" stop-color="#FFF" stop-opacity="0"/></linearGradient><rect id="rect23634-8" width="488.209" height="194.727" x="136.309" y="-221.155"/></defs><g id="layer1" transform="translate(-0.72746625,0.44215659)"><g id="g6394" transform="translate(41.911976,17.46332)"><rect style="opacity:1;fill:#efb466;fill-opacity:1;stroke:#fff;stroke-width:3.02865" id="rect10922-84-7" width="148.316" height="642.714" x="717.658" y="-19.03"/><rect style="opacity:1;fill:#e8c568;fill-opacity:1;stroke:#fff;stroke-width:3.79364" id="rect10922-8-1" width="232.248" height="643.977" x="485.342" y="-19.724"/><rect style="opacity:1;fill:#2a9d8f;fill-opacity:1;stroke:#fff;stroke-width:3.02911" id="rect10922-84" width="148.316" height="642.916" x="339.577" y="-19.295"/><g id="XMLID_140_" transform="matrix(16.134881,0,0,16.134881,340.68819,37.40309)" style="fill:#fff;fill-opacity:1"><circle id="XMLID_22_" cx="16" cy="16" r="14.5" class="st7" style="fill:#fff;fill-opacity:1"/></g><rect style="opacity:1;fill:#274754;fill-opacity:1;stroke:#fff;stroke-width:3.03856" id="rect10922" width="148.914" height="644.326" x="-42.163" y="-19.211"/><rect style="opacity:1;fill:#e86f50;fill-opacity:1;stroke:#fff;stroke-width:3.03665" id="rect10922-84-7-4" width="148.308" height="646.154" x="1095.743" y="-19.291"/><rect style="opacity:1;fill:#287170;fill-opacity:1;stroke:#fff;stroke-width:3.79305" id="rect10922-8" width="232.249" height="643.775" x="108.134" y="-19.645"/><rect style="opacity:1;fill:#f4a462;fill-opacity:1;stroke:#fff;stroke-width:3.79954" id="rect10922-8-1-4" width="232.242" height="645.999" x="864.299" y="-20.391"/><circle style="fill:#e86f50;fill-opacity:1;stroke:#fff;stroke-width:4.00843" id="path28002" cx="600.025" cy="295.049" r="229.386"/><g id="g21354" transform="matrix(0.77568823,0,0,0.74549552,413.38199,111.65837)"><g id="g21285"><g id="g21257"><polygon style="fill:#d7e1f2" id="polygon21253" points="305.487 83.25 180.913 83.25 180.913 44.938 81.813 44.938 81.813 476.9 404.587 476.9 404.587 44.938 305.487 44.938"/><rect x="180.913" y="9.5" style="fill:#d71920" id="rect21255" width="124.574" height="73.75"/></g><path id="path21259" d="m 404.587,35.439 h -89.6 V 9.5 c 0,-5.246 -4.254,-9.5 -9.5,-9.5 H 180.913 c -5.246,0 -9.5,4.254 -9.5,9.5 v 25.939 h -89.6 c -5.246,0 -9.5,4.254 -9.5,9.5 V 476.9 c 0,5.246 4.254,9.5 9.5,9.5 h 322.774 c 5.246,0 9.5,-4.254 9.5,-9.5 V 44.939 c 0,-5.247 -4.254,-9.5 -9.5,-9.5 z m -108.6,38.31 H 190.413 V 19 h 105.574 z m 99.1,393.651 H 91.313 V 54.439 h 80.1 V 83.25 c 0,5.246 4.254,9.5 9.5,9.5 h 124.574 c 5.246,0 9.5,-4.254 9.5,-9.5 V 54.439 h 80.1 z"/><path id="path21261" d="M 278.159,141.596 H 131.618 c -5.246,0 -9.5,-4.254 -9.5,-9.5 0,-5.246 4.254,-9.5 9.5,-9.5 h 146.541 c 5.246,0 9.5,4.254 9.5,9.5 0,5.246 -4.254,9.5 -9.5,9.5 z"/><path id="path21263" d="M 357.656,190.443 H 131.618 c -5.246,0 -9.5,-4.254 -9.5,-9.5 0,-5.246 4.254,-9.5 9.5,-9.5 h 226.038 c 5.246,0 9.5,4.254 9.5,9.5 0,5.246 -4.254,9.5 -9.5,9.5 z"/><path id="path21265" d="M 357.656,239.291 H 131.618 c -5.246,0 -9.5,-4.254 -9.5,-9.5 0,-5.246 4.254,-9.5 9.5,-9.5 h 226.038 c 5.246,0 9.5,4.254 9.5,9.5 0,5.246 -4.254,9.5 -9.5,9.5 z"/><path id="path21267" d="M 357.656,285.264 H 131.618 c -5.246,0 -9.5,-4.254 -9.5,-9.5 0,-5.246 4.254,-9.5 9.5,-9.5 h 226.038 c 5.246,0 9.5,4.254 9.5,9.5 0,5.246 -4.254,9.5 -9.5,9.5 z"/><path id="path21269" d="m 357.656,141.596 h -31.607 c -5.246,0 -9.5,-4.254 -9.5,-9.5 0,-5.246 4.254,-9.5 9.5,-9.5 h 31.607 c 5.246,0 9.5,4.254 9.5,9.5 0,5.246 -4.254,9.5 -9.5,9.5 z"/><path style="fill:#d7e1f2" id="path21271" d="m 334.972,339.48 c -9.281,-9.186 -22.102,-14.868 -36.265,-14.868 -13.363,0 -25.53,5.063 -34.657,13.351 l 36.227,35.858 z"/><g id="g21277"><path style="fill:#d71920" id="path21273" d="m 215.904,337.963 c -10.219,9.279 -16.629,22.603 -16.629,37.412 0,14.018 5.74,26.708 15.021,35.895 l 37.835,-37.449 z"/><path id="path21275" d="m 214.296,420.769 c -2.416,0 -4.832,-0.916 -6.683,-2.748 -11.503,-11.386 -17.838,-26.531 -17.838,-42.647 0,-16.852 7.196,-33.051 19.742,-44.444 3.738,-3.396 9.481,-3.271 13.069,0.281 l 36.227,35.857 c 1.803,1.784 2.818,4.216 2.818,6.752 0,2.536 -1.014,4.967 -2.817,6.752 l -37.835,37.449 c -1.851,1.833 -4.267,2.748 -6.683,2.748 z m 2.026,-69.026 c -4.861,6.879 -7.546,15.137 -7.546,23.631 0,7.818 2.188,15.306 6.277,21.779 l 23.575,-23.333 z"/></g><path style="fill:#3b4d81" id="path21279" d="m 262.443,411.269 c 9.281,9.186 22.102,14.868 36.265,14.868 28.325,0 51.286,-22.727 51.286,-50.763 0,-14.018 -5.74,-26.708 -15.021,-35.895 z"/><path id="path21281" d="m 341.656,332.73 v 0 l -0.001,-0.001 v -10e-4 l -10e-4,-0.001 c -11.477,-11.36 -26.728,-17.616 -42.946,-17.616 -15.234,0 -29.811,5.618 -41.044,15.819 -1.931,1.753 -3.055,4.222 -3.112,6.829 -0.056,2.607 0.962,5.122 2.816,6.956 l 29.405,29.105 -31.013,30.697 c -1.803,1.784 -2.817,4.216 -2.817,6.752 0,2.536 1.014,4.967 2.817,6.752 11.477,11.36 26.73,17.616 42.949,17.616 33.517,0 60.786,-27.034 60.786,-60.263 -0.002,-16.115 -6.337,-31.259 -17.839,-42.644 z m -62.925,6.398 c 6.077,-3.272 12.922,-5.016 19.976,-5.016 7.885,0 15.437,2.142 21.973,6.147 l -20.403,20.195 z m 19.976,77.509 c -7.887,0 -15.438,-2.142 -21.973,-6.147 l 37.611,-37.228 19.87,-19.667 c 4.09,6.474 6.278,13.961 6.278,21.779 0,22.753 -18.745,41.263 -41.786,41.263 z"/><path id="path21283" d="m 247.95,53.2 h -32.3 c -5.246,0 -9.5,-4.254 -9.5,-9.5 0,-5.246 4.254,-9.5 9.5,-9.5 h 32.3 c 5.246,0 9.5,4.254 9.5,9.5 0,5.246 -4.254,9.5 -9.5,9.5 z"/></g></g></g></g><style id="style5576"><![CDATA[.C{fill-rule:evenodd}]]></style><style id="style16705"><![CDATA[.C{fill-rule:evenodd}]]></style><style id="style5966" type="text/css">.st7{fill:#ff5252}</style></svg>